<svg xmlns="http://www.w3.org/2000/svg" viewBox="0 0 96 96" fill="none">
  <path d="M72.9 54.2 L72.6 54.4 L73.1 55.4 L72.6 56.1 L71.8 56.3 L70.8 55.7 L70.3 56.3 L71.4 57.5 L71.8 57.3 L72.6 57.8 L72.9 59.0 L73.5 59.8 L74.9 60.3 L75.4 63.0 L76.6 63.2 L76.8 62.2 L75.8 60.5 L76.2 58.0 L75.4 57.5 L74.5 54.6 L73.9 54.2 Z" fill="none" stroke="#2E1D12" stroke-width="2.6" stroke-linejoin="round" stroke-linecap="round"/>
  <path d="M81.9 35.1 L81.2 36.2 L82.1 38.5 L82.7 36.8 Z" fill="none" stroke="#2E1D12" stroke-width="2.6" stroke-linejoin="round" stroke-linecap="round"/>
  <path d="M70.8 22.7 L71.0 25.0 L70.5 25.7 L71.4 25.9 L71.8 25.5 L71.8 24.2 L73.3 23.6 L72.0 23.6 Z" fill="none" stroke="#2E1D12" stroke-width="2.6" stroke-linejoin="round" stroke-linecap="round"/>
  <path d="M7.0 48.5 L10.4 55.9 L18.7 53.8 L27.3 58.2 L35.9 55.7 L37.6 62.8 L41.8 59.6 L43.9 64.9 L47.5 60.1 L58.6 58.4 L62.4 70.1 L66.1 67.6 L66.6 72.4 L71.8 74.5 L70.1 71.0 L73.7 68.0 L67.4 64.0 L68.2 57.8 L65.3 56.9 L68.2 51.5 L74.9 51.5 L82.5 62.6 L81.9 59.2 L86.9 55.7 L84.2 48.7 L89.0 47.1 L82.5 39.7 L79.1 43.7 L79.1 37.6 L75.4 36.4 L69.1 41.4 L68.9 46.6 L62.2 43.7 L58.0 47.1 L52.3 40.8 L58.0 37.2 L65.1 40.1 L77.7 30.7 L74.9 30.9 L73.9 26.5 L73.5 30.1 L69.9 31.3 L64.3 24.0 L58.0 27.8 L59.4 23.1 L49.2 21.5 L47.3 24.6 L37.6 25.7 L26.7 35.7 L22.7 34.1 Z" fill="none" stroke="#2E1D12" stroke-width="2.6" stroke-linejoin="round" stroke-linecap="round"/>
</svg>
