<svg xmlns="http://www.w3.org/2000/svg" width="24" height="16" viewBox="0 0 24 16" role="img" aria-label="United Kingdom flag">
  <rect width="24" height="16" fill="#012169"/>
  <path d="M0 0l9 6V0h6v6l9-6v2l-8 5 8 5v2l-9-6v6H9v-6L0 14v-2l8-5-8-5V0z" fill="#FFFFFF"/>
  <path d="M0 1.5l7.5 4.8V1.5h2v6.1L0 14.5v-1.7l7.2-4.6L0 3.4V1.5zM24 1.5v1.9l-7.2 4.6 7.2 4.6v1.9l-7.5-4.8V14.5h-2V8.4l9.5-6.9z" fill="#C8102E"/>
  <path d="M9.5 0h5v16h-5z" fill="#FFFFFF"/>
  <path d="M0 5.5h24v5H0z" fill="#FFFFFF"/>
  <path d="M10.5 0h3v16h-3z" fill="#C8102E"/>
  <path d="M0 6.5h24v3H0z" fill="#C8102E"/>
</svg>
