<svg xmlns="http://www.w3.org/2000/svg" viewBox="0 0 96 96" fill="none">
  <ellipse cx="48" cy="87" rx="28" ry="6" fill="#2E1D12" opacity="0.12" />
  <!-- Legs -->
  <rect
    x="38"
    y="72"
    width="7"
    height="12"
    rx="3"
    fill="#A6DCD3"
    stroke="#2E1D12"
    stroke-width="3"
  />
  <rect
    x="51"
    y="72"
    width="7"
    height="12"
    rx="3"
    fill="#7CC4B9"
    stroke="#2E1D12"
    stroke-width="3"
  />
  <!-- Body (teal shirt) -->
  <path
    d="M33 54 C33 50 38 48 48 48 C58 48 63 50 63 54 L61 74 C61 78 55 81 48 81 C41 81 35 78 35 74 Z"
    fill="#A6DCD3"
    stroke="#2E1D12"
    stroke-width="3.5"
    stroke-linejoin="round"
  />
  <path d="M38 56 C40 54 44 53 48 53 C52 53 56 54 58 56 L57 64 L39 64 Z" fill="#C5EAE3" />
  <!-- Head -->
  <circle
    cx="48"
    cy="36"
    r="15"
    fill="#FFF7E6"
    stroke="#2E1D12"
    stroke-width="3.5"
  />
  <path
    d="M38 26 C42 21 54 21 58 27"
    stroke="#2E1D12"
    stroke-width="3.5"
    stroke-linecap="round"
  />
  <ellipse cx="39" cy="39" rx="3.2" ry="1.8" fill="#F2A0BF" />
  <ellipse cx="57" cy="39" rx="3.2" ry="1.8" fill="#F2A0BF" />
  <circle cx="42" cy="34" r="2.2" fill="#2E1D12" />
  <circle cx="54" cy="34" r="2.2" fill="#2E1D12" />
  <path
    d="M45 41 C47 43 51 43 53 41"
    stroke="#2E1D12"
    stroke-width="2.2"
    stroke-linecap="round"
  />
  <!-- Arm holding cube -->
  <path
    d="M63 58 L74 62"
    stroke="#2E1D12"
    stroke-width="3.5"
    stroke-linecap="round"
  />
  <circle
    cx="64"
    cy="58"
    r="4.2"
    fill="#FFF7E6"
    stroke="#2E1D12"
    stroke-width="2.8"
  />
  <!-- Play cube -->
  <g stroke="#2E1D12" stroke-width="3" stroke-linejoin="round">
    <polygon points="76,52 86,58 76,64 66,58" fill="#FFDE64" />
    <polygon points="66,58 76,64 76,73 66,67" fill="#F5C51B" />
    <polygon points="76,64 86,58 86,67 76,73" fill="#DFAE10" />
  </g>
  <circle cx="76" cy="58.5" r="2" fill="#FFF7E6" />
</svg>
